<svg width="24" height="24" viewBox="0 0 24 24" fill="none" xmlns="http://www.w3.org/2000/svg">
<g id="Group 23">
<g id="&#240;&#159;&#166;&#134; icon &#34;print&#34;">
<g id="Group">
<path id="Vector" d="M21 8H20V2C20 0.9 19.1 0 18 0H6C4.9 0 4 0.9 4 2V8H3C1.35 8 0 9.35 0 11V17C0 18.65 1.35 20 3 20H5V22C5 23.1 5.9 24 7 24H17C18.1 24 19 23.1 19 22V20H21C22.65 20 24 18.65 24 17V11C24 9.35 22.65 8 21 8ZM6 2.5C6 2.224 6.224 2 6.5 2H17.5C17.776 2 18 2.224 18 2.5V8H6V2.5ZM17 21.5C17 21.776 16.776 22 16.5 22H7.5C7.224 22 7 21.776 7 21.5V17H17V21.5ZM22 17C22 17.54 21.54 18 21 18H19V17C19 15.9 18.1 15 17 15H7C5.9 15 5 15.9 5 17V18H3C2.46 18 2 17.54 2 17V11C2 10.46 2.46 10 3 10H21C21.54 10 22 10.46 22 11V17Z" fill="#5399DB"/>
<path id="Vector_2" d="M5 14C5.55228 14 6 13.5523 6 13C6 12.4477 5.55228 12 5 12C4.44772 12 4 12.4477 4 13C4 13.5523 4.44772 14 5 14Z" fill="#5399DB"/>
</g>
</g>
</g>
</svg>
