<svg width="28" height="28" viewBox="0 0 28 28" fill="none" xmlns="http://www.w3.org/2000/svg">
<g id="&#240;&#159;&#166;&#134; icon &#34;link 2&#34;">
<g id="Group">
<path id="Vector" d="M15.5049 10.8384L10.8383 15.5051C10.7289 15.6135 10.6421 15.7426 10.5829 15.8847C10.5237 16.0269 10.4932 16.1794 10.4932 16.3334C10.4932 16.4874 10.5237 16.6399 10.5829 16.7821C10.6421 16.9242 10.7289 17.0533 10.8383 17.1617C10.9467 17.2711 11.0758 17.3579 11.2179 17.4171C11.3601 17.4763 11.5126 17.5068 11.6666 17.5068C11.8206 17.5068 11.9731 17.4763 12.1153 17.4171C12.2574 17.3579 12.3865 17.2711 12.4949 17.1617L17.1616 12.4951C17.3813 12.2754 17.5047 11.9774 17.5047 11.6667C17.5047 11.3561 17.3813 11.0581 17.1616 10.8384C16.9419 10.6187 16.6439 10.4953 16.3333 10.4953C16.0226 10.4953 15.7246 10.6187 15.5049 10.8384Z" fill="#5399DB"/>
<path id="Vector_2" d="M14.3267 20.3001L12.8334 21.7817C11.995 22.6456 10.868 23.1706 9.66737 23.2567C8.4667 23.3427 7.27635 22.9838 6.32337 22.2484C5.81969 21.8334 5.40866 21.3173 5.11685 20.7335C4.82504 20.1497 4.65892 19.5112 4.62923 18.8592C4.59955 18.2072 4.70695 17.5563 4.94451 16.9484C5.18206 16.3405 5.54449 15.7892 6.00837 15.3301L7.66504 13.6617C7.77439 13.5533 7.86118 13.4242 7.92041 13.2821C7.97964 13.1399 8.01013 12.9874 8.01013 12.8334C8.01013 12.6794 7.97964 12.5269 7.92041 12.3847C7.86118 12.2426 7.77439 12.1135 7.66504 12.0051C7.55658 11.8957 7.42754 11.8089 7.28538 11.7497C7.14321 11.6905 6.99072 11.66 6.8367 11.66C6.68269 11.66 6.5302 11.6905 6.38803 11.7497C6.24586 11.8089 6.11683 11.8957 6.00837 12.0051L4.5267 13.4984C3.27855 14.7071 2.51139 16.3276 2.36763 18.0591C2.22388 19.7906 2.7133 21.5154 3.74504 22.9134C4.35739 23.7078 5.13178 24.3628 6.01676 24.835C6.90173 25.3071 7.87703 25.5855 8.87788 25.6517C9.87872 25.7179 10.8822 25.5704 11.8217 25.219C12.7611 24.8675 13.615 24.3202 14.3267 23.6134L15.9834 21.9567C16.2031 21.737 16.3265 21.4391 16.3265 21.1284C16.3265 20.8177 16.2031 20.5198 15.9834 20.3001C15.7637 20.0804 15.4657 19.957 15.155 19.957C14.8443 19.957 14.5464 20.0804 14.3267 20.3001Z" fill="#5399DB"/>
<path id="Vector_3" d="M22.9366 3.75673C21.5291 2.71427 19.7901 2.21987 18.0446 2.36586C16.2991 2.51185 14.6665 3.28826 13.4516 4.55006L12.1916 5.8334C12.0476 5.93809 11.9272 6.07186 11.8382 6.22604C11.7491 6.38023 11.6935 6.55139 11.6748 6.72846C11.6561 6.90552 11.6748 7.08454 11.7296 7.25392C11.7845 7.4233 11.8743 7.57927 11.9933 7.71173C12.1018 7.82108 12.2308 7.90787 12.373 7.9671C12.5151 8.02633 12.6676 8.05683 12.8216 8.05683C12.9757 8.05683 13.1281 8.02633 13.2703 7.9671C13.4125 7.90787 13.5415 7.82108 13.65 7.71173L15.1666 6.1834C16.0003 5.31577 17.126 4.78787 18.3262 4.70168C19.5263 4.6155 20.7159 4.97713 21.665 5.71673C22.1724 6.13183 22.5867 6.6492 22.8808 7.23511C23.175 7.82102 23.3423 8.46233 23.3721 9.11725C23.4018 9.77217 23.2932 10.426 23.0533 11.0361C22.8135 11.6463 22.4477 12.199 21.98 12.6584L20.3233 14.3267C20.214 14.4352 20.1272 14.5642 20.0679 14.7064C20.0087 14.8486 19.9782 15.001 19.9782 15.1551C19.9782 15.3091 20.0087 15.4616 20.0679 15.6037C20.1272 15.7459 20.214 15.8749 20.3233 15.9834C20.4318 16.0927 20.5608 16.1795 20.703 16.2388C20.8451 16.298 20.9976 16.3285 21.1516 16.3285C21.3057 16.3285 21.4581 16.298 21.6003 16.2388C21.7425 16.1795 21.8715 16.0927 21.98 15.9834L23.6366 14.3267C24.3415 13.6152 24.8871 12.762 25.2374 11.8237C25.5876 10.8854 25.7345 9.88336 25.6683 8.884C25.6022 7.88464 25.3244 6.91074 24.8535 6.02682C24.3825 5.14289 23.7292 4.36911 22.9366 3.75673Z" fill="#5399DB"/>
</g>
</g>
</svg>
