<svg width="37" height="37" viewBox="0 0 37 37" fill="none" xmlns="http://www.w3.org/2000/svg">
<path d="M18.1769 31.8097C25.706 31.8097 31.8096 25.7061 31.8096 18.177C31.8096 10.6478 25.706 4.54425 18.1769 4.54425C10.6478 4.54425 4.54419 10.6478 4.54419 18.177C4.54419 25.7061 10.6478 31.8097 18.1769 31.8097Z" stroke="white" stroke-width="2" stroke-linecap="round" stroke-linejoin="round"/>
<path d="M18.177 25.7507V25.7658" stroke="white" stroke-width="2" stroke-linecap="round" stroke-linejoin="round"/>
<path d="M18.177 20.4491C18.1491 19.9573 18.2817 19.4699 18.5549 19.0601C18.8281 18.6503 19.2271 18.3403 19.6917 18.1769C20.2611 17.9592 20.7721 17.6123 21.1846 17.1635C21.5971 16.7147 21.8998 16.1763 22.0688 15.5906C22.2379 15.005 22.2687 14.3881 22.1588 13.7885C22.0489 13.1889 21.8014 12.623 21.4357 12.1354C21.0699 11.6477 20.596 11.2516 20.0511 10.9783C19.5063 10.7049 18.9055 10.5618 18.2959 10.5601C17.6863 10.5584 17.0847 10.6982 16.5384 10.9685C15.992 11.2389 15.5159 11.6323 15.1475 12.118" stroke="white" stroke-width="2" stroke-linecap="round" stroke-linejoin="round"/>
</svg>
