<svg width="42" height="41" viewBox="0 0 42 41" fill="none" xmlns="http://www.w3.org/2000/svg">
<path d="M38.4289 0H3.72877C2.06933 0 0.722656 1.315 0.722656 2.93429V37.7843C0.722656 39.4059 2.06933 40.7226 3.72877 40.7226H38.4289C40.0895 40.7226 41.4452 39.4059 41.4452 37.7843V2.93429C41.4452 1.315 40.0895 0 38.4289 0ZM12.8003 34.7013H6.75752V15.2681H12.8003V34.7013ZM9.7789 12.611C7.84289 12.611 6.27789 11.042 6.27789 9.10772C6.27789 7.17622 7.84289 5.60727 9.7789 5.60727C11.7104 5.60727 13.2794 7.17622 13.2794 9.10772C13.2794 11.042 11.7104 12.611 9.7789 12.611ZM35.4217 34.7013H29.3885V25.2514C29.3885 22.9969 29.3444 20.0983 26.2489 20.0983C23.1054 20.0983 22.6263 22.5535 22.6263 25.0879V34.7019H16.5886V15.2681H22.3831V17.9219H22.4657C23.2722 16.3948 25.2427 14.7834 28.1816 14.7834C34.2933 14.7834 35.4223 18.807 35.4223 24.0416L35.4217 34.7013Z" fill="white"/>
</svg>
