<svg width="42" height="41" viewBox="0 0 42 41" fill="none" xmlns="http://www.w3.org/2000/svg">
<rect x="0.722656" width="41" height="41" rx="2" fill="white"/>
<path d="M33.5454 16.2253C34.1372 17.6754 34.4638 19.2628 34.4638 20.9291H36.4839C36.4839 18.9966 36.1048 17.1502 35.4158 15.4621L33.5454 16.2253ZM34.4638 20.9291C34.4638 21.8143 34.3717 22.6769 34.1967 23.5081L36.1735 23.924C36.3771 22.9569 36.4839 21.9549 36.4839 20.9291H34.4638ZM34.1967 23.5081C33.1847 28.3175 29.3949 32.1073 24.5855 33.1193L25.0013 35.0961C30.5946 33.9192 34.9966 29.5172 36.1735 23.924L34.1967 23.5081ZM24.5855 33.1193C23.7543 33.2943 22.8917 33.3864 22.0065 33.3864V35.4065C23.0323 35.4065 24.0343 35.2997 25.0013 35.0961L24.5855 33.1193ZM22.0065 33.3864C21.1213 33.3864 20.2587 33.2943 19.4275 33.1193L19.0115 35.0961C19.9787 35.2997 20.9807 35.4065 22.0065 35.4065V33.3864ZM9.54916 20.9291C9.54916 19.2616 9.87627 17.6729 10.4689 16.2219L8.59875 15.4581C7.90881 17.1473 7.52905 18.9952 7.52905 20.9291H9.54916ZM19.4275 33.1193C14.618 32.1073 10.8282 28.3175 9.81623 23.5081L7.83941 23.924C9.01632 29.5172 13.4184 33.9192 19.0115 35.0961L19.4275 33.1193ZM9.81623 23.5081C9.64133 22.6769 9.54916 21.8143 9.54916 20.9291H7.52905C7.52905 21.9549 7.6359 22.9569 7.83941 23.924L9.81623 23.5081ZM10.4689 16.2219C12.0113 12.4455 15.3548 9.59583 19.4275 8.73884L19.0115 6.76202C14.2726 7.75918 10.3907 11.0708 8.59875 15.4581L10.4689 16.2219ZM19.4275 8.73884C20.2587 8.56394 21.1213 8.47177 22.0065 8.47177V6.45166C20.9807 6.45166 19.9787 6.55851 19.0115 6.76202L19.4275 8.73884ZM22.0065 8.47177C22.8917 8.47177 23.7543 8.56394 24.5855 8.73884L25.0013 6.76203C24.0343 6.55851 23.0323 6.45166 22.0065 6.45166V8.47177ZM24.5855 8.73884C28.6595 9.59609 32.0037 12.4472 33.5454 16.2253L35.4158 15.4621C33.6246 11.0728 29.7417 7.75949 25.0013 6.76203L24.5855 8.73884ZM23.8312 8.05747C24.2027 9.22206 25.5783 13.7012 26.142 17.8166L28.1436 17.5424C27.5546 13.2439 26.1329 8.62539 25.7557 7.4434L23.8312 8.05747ZM26.142 17.8166C26.2931 18.9195 26.3834 19.9787 26.3834 20.9291H28.4035C28.4035 19.8592 28.3026 18.7037 28.1436 17.5424L26.142 17.8166ZM34.0775 14.922C32.5995 15.3703 29.8233 16.1576 26.9595 16.6862L27.3261 18.6728C30.2964 18.1246 33.1538 17.3132 34.6638 16.8552L34.0775 14.922ZM26.9595 16.6862C25.2222 17.0068 23.4875 17.2256 22.0065 17.2256V19.2457C23.6619 19.2457 25.5321 19.0039 27.3261 18.6728L26.9595 16.6862ZM26.3834 20.9291C26.3834 22.3371 26.1857 23.9755 25.8899 25.6291L27.8785 25.9846C28.1845 24.2734 28.4035 22.5045 28.4035 20.9291H26.3834ZM25.8899 25.6291C25.242 29.2534 24.1533 32.7911 23.8312 33.8007L25.7557 34.4148C26.0863 33.3787 27.2069 29.741 27.8785 25.9846L25.8899 25.6291ZM34.878 22.7538C33.8685 23.0759 30.3308 24.1646 26.7064 24.8125L27.062 26.8011C30.8184 26.1295 34.4561 25.0089 35.4922 24.6783L34.878 22.7538ZM26.7064 24.8125C25.0529 25.1083 23.4145 25.306 22.0065 25.306V27.3261C23.5819 27.3261 25.3508 27.1071 27.062 26.8011L26.7064 24.8125ZM22.0065 25.306C20.5985 25.306 18.96 25.1083 17.3065 24.8125L16.9509 26.8011C18.6621 27.1071 20.4311 27.3261 22.0065 27.3261V25.306ZM17.3065 24.8125C13.6821 24.1646 10.1444 23.0759 9.13486 22.7538L8.52079 24.6783C9.55681 25.0089 13.1946 26.1295 16.9509 26.8011L17.3065 24.8125ZM15.6095 20.9291C15.6095 22.5045 15.8284 24.2734 16.1344 25.9846L18.123 25.6291C17.8273 23.9755 17.6296 22.3371 17.6296 20.9291H15.6095ZM16.1344 25.9846C16.806 29.741 17.9267 33.3787 18.2573 34.4148L20.1818 33.8007C19.8596 32.7911 18.771 29.2534 18.123 25.6291L16.1344 25.9846ZM18.2573 7.4434C17.8801 8.62539 16.4583 13.2439 15.8694 17.5424L17.8709 17.8166C18.4346 13.7012 19.8102 9.22206 20.1818 8.05747L18.2573 7.4434ZM15.8694 17.5424C15.7104 18.7037 15.6095 19.8592 15.6095 20.9291H17.6296C17.6296 19.9787 17.7198 18.9195 17.8709 17.8166L15.8694 17.5424ZM22.0065 17.2256C20.5255 17.2256 18.7908 17.0068 17.0535 16.6862L16.6868 18.6728C18.4809 19.0039 20.3511 19.2457 22.0065 19.2457V17.2256ZM17.0535 16.6862C14.1885 16.1575 11.4115 15.3698 9.93388 14.9216L9.34751 16.8547C10.857 17.3126 13.7154 18.1244 16.6868 18.6728L17.0535 16.6862ZM34.0152 14.9473C34.0331 14.938 34.0544 14.929 34.0775 14.922L34.6638 16.8552C34.7634 16.825 34.8572 16.7863 34.9461 16.7401L34.0152 14.9473ZM9.00685 16.7017C9.11151 16.7657 9.22512 16.8176 9.34751 16.8547L9.93388 14.9216C9.98056 14.9357 10.0236 14.9556 10.0608 14.9783L9.00685 16.7017Z" fill="black"/>
</svg>
