<svg width="41" height="41" viewBox="0 0 41 41" fill="none" xmlns="http://www.w3.org/2000/svg">
<path d="M20.3613 15.5128C19.4024 15.5131 18.4652 15.7978 17.6681 16.3308C16.871 16.8637 16.2498 17.6211 15.8831 18.5071C15.5164 19.3931 15.4207 20.3679 15.608 21.3083C15.7952 22.2487 16.2572 23.1125 16.9353 23.7904C17.6135 24.4683 18.4774 24.9299 19.4179 25.1168C20.3583 25.3037 21.3331 25.2076 22.219 24.8406C23.1048 24.4735 23.862 23.8521 24.3946 23.0548C24.9273 22.2575 25.2116 21.3202 25.2116 20.3613C25.2107 19.0754 24.6993 17.8424 23.7898 16.9333C22.8804 16.0242 21.6472 15.5132 20.3613 15.5128ZM31.6973 11.7859C31.4504 11.1604 31.0777 10.5923 30.6022 10.1167C30.1267 9.64124 29.5586 9.26852 28.933 9.02169C27.0242 8.26814 22.4792 8.43721 20.3613 8.43721C18.2434 8.43721 13.703 8.26178 11.7886 9.02169C11.1631 9.26852 10.595 9.64124 10.1195 10.1167C9.64397 10.5923 9.27124 11.1604 9.02441 11.7859C8.27177 13.6948 8.43994 18.2443 8.43994 20.3604C8.43994 22.4765 8.27177 27.0205 9.02805 28.9358C9.27488 29.5613 9.64761 30.1294 10.1231 30.6049C10.5986 31.0804 11.1668 31.4532 11.7923 31.7C13.7011 32.4535 18.2461 32.2845 20.3649 32.2845C22.4838 32.2845 27.0223 32.4599 28.9367 31.7C29.5622 31.4532 30.1303 31.0804 30.6058 30.6049C31.0813 30.1294 31.4541 29.5613 31.7009 28.9358C32.4599 27.0269 32.2854 22.4774 32.2854 20.3613C32.2854 18.2452 32.4599 13.7021 31.7009 11.7868L31.6973 11.7859ZM20.3613 27.815C18.8871 27.815 17.446 27.3778 16.2202 26.5588C14.9945 25.7398 14.0391 24.5757 13.475 23.2137C12.9108 21.8517 12.7632 20.353 13.0508 18.9071C13.3384 17.4613 14.0483 16.1332 15.0907 15.0907C16.1332 14.0483 17.4613 13.3384 18.9071 13.0508C20.353 12.7632 21.8517 12.9108 23.2137 13.475C24.5757 14.0391 25.7398 14.9945 26.5588 16.2202C27.3778 17.446 27.815 18.8871 27.815 20.3613C27.8162 21.3405 27.6242 22.3102 27.25 23.2151C26.8759 24.12 26.3269 24.9421 25.6345 25.6345C24.9421 26.3269 24.12 26.8759 23.2151 27.25C22.3102 27.6242 21.3405 27.8162 20.3613 27.815ZM28.1222 14.3347C27.7781 14.3349 27.4416 14.233 27.1554 14.0419C26.8692 13.8509 26.646 13.5792 26.5142 13.2613C26.3824 12.9434 26.3478 12.5936 26.4148 12.2561C26.4819 11.9185 26.6475 11.6084 26.8908 11.365C27.134 11.1216 27.444 10.9558 27.7816 10.8886C28.1191 10.8214 28.4689 10.8558 28.7869 10.9875C29.1048 11.1191 29.3766 11.3421 29.5678 11.6282C29.759 11.9144 29.8611 12.2508 29.8611 12.5949C29.8621 12.8234 29.8179 13.0499 29.7311 13.2613C29.6444 13.4728 29.5167 13.665 29.3555 13.8269C29.1943 13.9889 29.0027 14.1175 28.7917 14.2052C28.5806 14.293 28.3544 14.3382 28.1259 14.3383L28.1222 14.3347ZM36.3594 0H4.36313C3.20596 0 2.09618 0.459686 1.27793 1.27793C0.459686 2.09618 0 3.20596 0 4.36313L0 36.3594C0 37.5166 0.459686 38.6264 1.27793 39.4446C2.09618 40.2629 3.20596 40.7226 4.36313 40.7226H36.3594C37.5166 40.7226 38.6264 40.2629 39.4446 39.4446C40.2629 38.6264 40.7226 37.5166 40.7226 36.3594V4.36313C40.7226 3.20596 40.2629 2.09618 39.4446 1.27793C38.6264 0.459686 37.5166 0 36.3594 0ZM34.8033 26.3606C34.686 28.6903 34.1542 30.7546 32.4535 32.4508C30.7528 34.147 28.6903 34.6896 26.3633 34.8005C23.9627 34.936 16.7653 34.936 14.3647 34.8005C12.035 34.6833 9.97794 34.1506 8.2745 32.4508C6.57106 30.751 6.03567 28.6858 5.92477 26.3606C5.78933 23.9591 5.78933 16.7608 5.92477 14.362C6.04203 12.0323 6.56742 9.96794 8.2745 8.27177C9.98158 6.57561 12.0441 6.0393 14.3647 5.92841C16.7653 5.79297 23.9627 5.79297 26.3633 5.92841C28.6931 6.04567 30.7565 6.57833 32.4535 8.27814C34.1506 9.97794 34.6924 12.0432 34.8033 14.3729C34.9387 16.7653 34.9387 23.9572 34.8033 26.3606Z" fill="white"/>
</svg>
