<svg width="209" height="68" viewBox="0 0 209 68" fill="none" xmlns="http://www.w3.org/2000/svg">
<g clip-path="url(#clip0_92_165)">
<path d="M50.2332 11.2243C48.0178 9.39765 45.1789 8.29819 42.0857 8.29819C35.4604 8.29819 29.995 13.3467 29.3367 19.7904C29.2914 20.2184 29.2705 20.6568 29.2705 21.0952C29.2705 21.5336 29.2914 21.9719 29.3367 22.4034C29.3576 22.6052 29.382 22.8035 29.4133 23.0053C30.3364 29.1568 35.6694 33.8956 42.0857 33.8956C42.3051 33.8956 42.5246 33.8921 42.7371 33.8817C42.7719 33.8817 42.8067 33.8782 42.8416 33.8747C43.0227 33.8608 43.2073 33.8504 43.3919 33.833C43.4059 33.833 43.4233 33.826 43.4372 33.826C46.3493 33.5233 49.0489 32.2464 51.1458 30.1484C52.2292 29.0628 53.1139 27.7789 53.7549 26.3663L49.6968 25.7853C48.5926 27.5667 46.8892 28.9341 44.8619 29.5952C44.8201 29.6091 44.7748 29.6265 44.7295 29.6369C44.4544 29.7204 44.1792 29.797 43.8935 29.8526H43.8866C43.6323 29.9048 43.3745 29.9396 43.1168 29.9709C43.075 29.9744 43.0332 29.9848 42.9914 29.9883C42.6918 30.0196 42.3887 30.037 42.0857 30.037C41.7826 30.037 41.5075 30.0196 41.2253 29.9918C41.1347 29.9848 41.0477 29.9674 40.9536 29.957C40.762 29.9327 40.5704 29.9083 40.3858 29.8735C40.2813 29.8526 40.1803 29.8283 40.0758 29.8039C39.9051 29.7656 39.7344 29.7204 39.5672 29.6717C39.4662 29.6404 39.3652 29.6091 39.2642 29.5743C39.1005 29.5186 38.9368 29.4595 38.7765 29.3934C38.6825 29.3551 38.5849 29.3168 38.4909 29.2785C38.3237 29.2055 38.16 29.1254 37.9963 29.0419C37.9161 29.0002 37.836 28.9619 37.7594 28.9167C37.5608 28.8088 37.3693 28.6905 37.1846 28.5688C37.1463 28.5444 37.108 28.52 37.0697 28.4957C36.8433 28.3426 36.6203 28.1756 36.4113 28.0016C36.3695 27.9703 36.3347 27.9355 36.2964 27.9007C36.1257 27.7581 35.9655 27.6119 35.8087 27.4623C35.7495 27.3997 35.6903 27.3371 35.6276 27.2744C35.5022 27.1388 35.3733 27.0031 35.2549 26.8639C35.1922 26.7908 35.133 26.7143 35.0737 26.6377C34.9623 26.4986 34.8578 26.3594 34.7568 26.2132C34.6975 26.1332 34.6453 26.0532 34.5896 25.9697C34.492 25.8201 34.398 25.6635 34.3074 25.5104C34.2621 25.4304 34.2134 25.3504 34.1716 25.2669C34.0775 25.0859 33.9904 24.905 33.9068 24.7241C33.879 24.658 33.8476 24.5954 33.8197 24.5293C33.6142 24.0456 33.4575 23.5376 33.346 23.0157H54.7511C54.8451 22.3964 54.8939 21.7562 54.8939 21.1091V21.0882C54.8939 17.1183 53.0756 13.5659 50.2262 11.2173M33.353 19.1676H33.346C33.461 18.6457 33.6282 18.1377 33.8302 17.6541C33.8546 17.5915 33.8894 17.5323 33.9173 17.4697C34.0009 17.2818 34.088 17.0974 34.182 16.913C34.2238 16.8365 34.2691 16.7564 34.3179 16.6799C34.4084 16.5198 34.5025 16.3633 34.6035 16.2137C34.6557 16.1336 34.708 16.0536 34.7637 15.9771C34.8682 15.8309 34.9727 15.6883 35.0842 15.5491C35.1434 15.476 35.2026 15.3995 35.2653 15.3299C35.3838 15.1873 35.5092 15.0516 35.638 14.9159C35.6973 14.8567 35.753 14.7941 35.8157 14.7349C35.9724 14.5819 36.1362 14.4322 36.3068 14.2896C36.3452 14.2583 36.38 14.2235 36.4183 14.1922C36.6273 14.0182 36.8468 13.8547 37.0767 13.6981C37.115 13.6737 37.1533 13.6529 37.1916 13.6285C37.3797 13.5033 37.5713 13.385 37.7698 13.2771C37.8465 13.2319 37.9266 13.1971 38.0067 13.1519C38.1669 13.0683 38.3341 12.9883 38.5013 12.9153C38.5954 12.8735 38.6894 12.8352 38.7835 12.8004C38.9472 12.7378 39.1109 12.6752 39.2746 12.623C39.3757 12.5882 39.4767 12.5569 39.5777 12.5256C39.7449 12.4769 39.9121 12.4351 40.0863 12.3934C40.1908 12.3725 40.2918 12.3446 40.3963 12.3238C40.5844 12.289 40.7725 12.2611 40.9641 12.2368C41.0546 12.2229 41.1417 12.209 41.2358 12.202C41.5179 12.1742 41.8035 12.1568 42.0961 12.1568C42.3887 12.1568 42.6709 12.1742 42.953 12.202C43.0471 12.209 43.1377 12.2263 43.2282 12.2368C43.4163 12.2611 43.6044 12.289 43.789 12.3238C43.8935 12.3446 43.998 12.369 44.1025 12.3934C44.2732 12.4316 44.4404 12.4734 44.6041 12.5221C44.7121 12.5534 44.8131 12.5847 44.9211 12.6195C45.0814 12.6717 45.2381 12.7309 45.3949 12.7935C45.4959 12.8318 45.5934 12.8735 45.6944 12.9187C45.8547 12.9883 46.0114 13.0649 46.1647 13.1449C46.2518 13.1901 46.3423 13.2319 46.4294 13.2771C46.6071 13.378 46.7847 13.4859 46.9589 13.5972C47.0111 13.632 47.0669 13.6633 47.1191 13.7016C47.342 13.8547 47.558 14.0112 47.7635 14.1852C47.8227 14.2304 47.8715 14.2826 47.9272 14.3279C48.077 14.4566 48.2233 14.5853 48.3627 14.721C48.4358 14.7906 48.502 14.8672 48.5717 14.9402C48.6901 15.062 48.8016 15.1838 48.913 15.316C48.9827 15.3995 49.0489 15.483 49.1185 15.57C49.2196 15.6952 49.3171 15.8275 49.4111 15.9597C49.4738 16.0467 49.5365 16.1406 49.5958 16.2311C49.6863 16.3668 49.7699 16.5094 49.8535 16.6521C49.9058 16.746 49.9615 16.833 50.0103 16.9304C50.0974 17.0905 50.174 17.254 50.2506 17.421C50.2889 17.5045 50.3273 17.5845 50.3621 17.668C50.4666 17.9151 50.5606 18.1725 50.6442 18.4335C50.6547 18.4648 50.6582 18.4926 50.6686 18.5239C50.7313 18.7362 50.7836 18.9519 50.8323 19.1676H33.3599H33.353Z" fill="white"/>
<path d="M21.7639 11.9515C19.4509 9.69341 16.2915 8.2982 12.8117 8.2982C5.74402 8.2982 0 14.0391 0 21.0952C0 28.1513 5.74402 33.8921 12.8117 33.8921C16.2915 33.8921 19.4544 32.4969 21.7639 30.2388V33.3389L25.6234 33.8921V2.20589L21.7639 1.65268V11.9515ZM12.8117 30.037C7.87582 30.037 3.85953 26.0219 3.85953 21.0952C3.85953 16.1684 7.8793 12.1533 12.8117 12.1533C17.7441 12.1533 21.7639 16.165 21.7639 21.0952C21.7639 26.0254 17.7476 30.037 12.8117 30.037Z" fill="white"/>
<path d="M119.827 1.59701L108.638 0V3.78551L119.827 5.37904V1.59701Z" fill="white"/>
<path d="M122.112 8.72614V11.9515C119.802 9.6934 116.643 8.29819 113.163 8.29819C106.099 8.29819 100.355 14.0391 100.355 21.0952C100.355 28.1512 106.102 33.8921 113.163 33.8921C116.646 33.8921 119.806 32.4969 122.112 30.2388V33.3737L125.975 33.9234V9.27936L122.112 8.72962V8.72614ZM113.163 30.037C108.227 30.037 104.211 26.0219 104.211 21.0952C104.211 16.1684 108.227 12.1533 113.163 12.1533C118.099 12.1533 122.112 16.1649 122.112 21.0952C122.112 26.0254 118.099 30.037 113.163 30.037Z" fill="white"/>
<path d="M86.8848 8.29819C83.2273 8.29819 79.9982 10.1318 78.051 12.9222C76.1038 10.1318 72.8748 8.29819 69.2208 8.29819C66.5943 8.29819 64.1874 9.24456 62.3168 10.8103V9.27936L58.4573 8.72962V33.3772L62.3168 33.9269V19.0493C62.3168 15.2464 65.4135 12.1568 69.2208 12.1568C73.0281 12.1568 76.1213 15.2499 76.1213 19.0493V33.3772L79.9843 33.9269V19.0493C79.9843 15.2464 83.081 12.1568 86.8848 12.1568C90.6886 12.1568 93.7818 15.2499 93.7818 19.0493V33.3772L97.6448 33.9269V19.0493C97.6448 13.124 92.8134 8.29819 86.8848 8.29819Z" fill="white"/>
<path d="M151.971 63.6126H155.694V58.8076C155.694 58.651 155.694 58.4945 155.715 58.3344C155.855 57.6072 156.541 57.0749 157.823 57.0749C157.931 57.0749 158.028 57.0784 158.122 57.0853C157.903 57.7012 157.809 58.3135 157.809 58.825C157.809 61.8973 159.861 63.8457 163.487 63.8457C164.73 63.8457 166.047 63.7065 167.371 63.1776L166.897 60.7386C165.89 61.0553 164.964 61.1318 163.999 61.1318C162.717 61.1318 161.477 60.7386 161.337 60.008H167.688V63.6091H171.411V58.2335C171.411 58.0178 171.411 57.7603 171.491 57.5829C171.648 57.2106 171.983 56.6365 172.791 56.6365C173.717 56.6365 174.17 57.3045 174.17 58.5675V63.6056H177.894V62.7323C178.475 63.3934 179.381 63.8422 180.552 63.8422C181.656 63.8422 182.68 63.5673 183.39 62.781H183.471L183.669 63.6091H186.512V67.9965H190.235V62.9028H190.274C190.667 63.4351 191.611 63.8457 192.834 63.8457C195.081 63.8457 197.644 62.2104 197.644 58.6093C197.644 58.5258 197.644 58.4458 197.641 58.3657C198.09 59.079 198.971 59.6914 200.407 60.0671C201.528 60.3629 201.727 60.502 201.727 60.8361C201.727 61.1701 201.431 61.3301 200.623 61.3301C199.675 61.3301 198.257 60.8952 197.644 60.5229L197.014 63.122C197.881 63.536 199.142 63.8492 200.661 63.8492C203.343 63.8492 204.792 62.8436 205.217 61.4867V63.6126H208.941V53.9261H205.217V59.6566C204.907 58.6441 204.043 57.9586 202.455 57.5272C201.215 57.1932 200.877 56.9949 200.877 56.6817C200.877 56.2886 201.27 56.1703 201.883 56.1703C202.751 56.1703 203.796 56.5252 204.287 56.7618L204.879 54.281C204.249 53.9853 203.047 53.6895 201.727 53.6895C199.267 53.6895 197.571 54.869 197.31 56.5843C196.589 54.6081 194.84 53.6895 193.349 53.6895C191.858 53.6895 190.688 54.1627 189.842 55.2065H189.803L189.647 53.9261H186.435C186.459 54.4967 186.487 55.1787 186.501 55.972C185.891 54.5419 184.488 53.693 182.116 53.693C179.949 53.693 178.507 54.2636 177.876 54.5976L178.528 56.9183C179.158 56.5634 180.381 56.1494 181.464 56.1494C182.924 56.1494 183.161 56.5808 183.161 56.9357V56.9949C180.712 56.9949 178.859 57.5307 177.901 58.6615V58.0178C177.901 55.1821 176.462 53.686 174.135 53.686C172.303 53.686 171.356 54.789 171.059 55.203H170.979L170.823 53.9226H167.611C167.646 54.7264 167.684 55.7493 167.691 56.9949C167.179 55.1891 165.782 53.686 163.135 53.686C161.003 53.686 159.631 54.6046 158.816 55.7528V53.7452C158.54 53.686 158.401 53.686 158.088 53.686C157.182 53.686 155.802 54.1975 155.27 55.791H155.193L155.074 53.9191H151.901C151.96 54.6672 151.981 55.5336 151.981 57.2454V63.6021L151.971 63.6126ZM190.235 58.4353C190.235 58.2961 190.235 58.1779 190.256 58.0422C190.375 57.2141 191.103 56.5252 191.952 56.5252C193.252 56.5252 193.844 57.5898 193.844 58.8285C193.844 60.248 193.074 61.0726 191.911 61.0726C191.043 61.0726 190.392 60.4011 190.256 59.6531C190.235 59.4756 190.235 59.3191 190.235 59.1416V58.4318V58.4353ZM183.276 59.7749C183.276 59.9523 183.276 60.1471 183.237 60.3072C183.08 60.8778 182.488 61.3127 181.917 61.3127C181.227 61.3127 180.855 60.9996 180.855 60.4464C180.855 59.66 181.642 59.246 183.279 59.246V59.7783L183.276 59.7749ZM161.278 57.5098C161.358 56.9601 161.811 56.052 162.954 56.052C164.176 56.052 164.472 57.0749 164.472 57.5098H161.278Z" fill="white"/>
<path d="M208.948 51.5358C208.948 52.5657 208.115 53.3973 207.084 53.3973C206.053 53.3973 205.221 52.5657 205.221 51.5358C205.221 50.5059 206.053 49.6744 207.084 49.6744C208.115 49.6744 208.948 50.5059 208.948 51.5358Z" fill="white"/>
<path d="M136.519 51.7794V54.6637C136.871 53.9713 137.63 53.6478 138.361 53.6478C139.682 53.6478 140.727 54.5106 140.727 56.0763C140.727 57.642 139.692 58.5049 138.361 58.5049C137.62 58.5049 136.958 58.2579 136.519 57.5202L136.48 58.4214H135.881V51.7828H136.519V51.7794ZM136.536 56.0694C136.536 57.1619 137.306 57.8995 138.32 57.8995C139.333 57.8995 140.086 57.2558 140.086 56.0763C140.086 54.8968 139.288 54.2566 138.32 54.2566C137.351 54.2566 136.536 54.9977 136.536 56.0694Z" fill="white"/>
<path d="M145.966 53.7347L142.994 60.6586H142.301L143.287 58.3622L141.406 53.7347H142.12L143.116 56.3234L143.639 57.6699L144.172 56.3234L145.262 53.7347H145.966Z" fill="white"/>
<path d="M148.09 19.8357V28.4087C148.09 31.9229 145.718 34.0696 142.36 34.0696C139.002 34.0696 136.651 31.902 136.651 28.447H138.058C138.058 31.0565 139.807 32.744 142.36 32.744C144.914 32.744 146.683 31.1365 146.683 28.4087V21.1404H141.517V19.8357H148.09Z" fill="white"/>
<path d="M165.176 26.9022C165.155 30.5763 162.825 34.1531 158.06 34.1531C153.295 34.1531 150.922 30.5798 150.922 26.8848C150.922 22.9288 153.497 19.5956 158.06 19.5956C162.825 19.6165 165.197 23.1515 165.176 26.9057M158.06 32.8275C161.898 32.8275 163.748 29.9153 163.769 26.9022C163.769 23.7499 161.898 20.9386 158.06 20.9177C154.28 20.9177 152.291 23.5899 152.33 26.9022C152.368 29.9744 154.218 32.8275 158.06 32.8275Z" fill="white"/>
<path d="M173.7 33.9304H172.132L166.141 19.8357H167.691L172.916 32.3856L178.061 19.8357H179.632L173.7 33.9304Z" fill="white"/>
<path d="M192.193 33.8887H182.102V19.8357H192.012V21.1613H183.509V26.1994H191.632V27.5041H183.509V32.563H192.193V33.8887Z" fill="white"/>
<path d="M207.593 21.9024L202.347 29.6126H201.943L196.676 21.8015V33.8887H195.269V19.8357H197L202.145 27.5841L207.231 19.8357H209V33.8887H207.593V21.9024Z" fill="white"/>
</g>
<defs>
<clipPath id="clip0_92_165">
<rect width="209" height="68" fill="white"/>
</clipPath>
</defs>
</svg>
