<svg width="126" height="101" viewBox="0 0 126 101" fill="none" xmlns="http://www.w3.org/2000/svg">
<mask id="mask0_44_45423" style="mask-type:luminance" maskUnits="userSpaceOnUse" x="-37" y="0" width="163" height="160">
<path d="M69.8142 158.17L-35.5864 58.6249L18.4466 1.41366L123.847 100.959L69.8142 158.17Z" fill="white" stroke="white" stroke-width="2"/>
</mask>
<g mask="url(#mask0_44_45423)">
<mask id="mask1_44_45423" style="mask-type:luminance" maskUnits="userSpaceOnUse" x="-37" y="1" width="160" height="159">
<path d="M120.885 115.475L7.7925 158.158L-34.8819 45.0729L78.2024 2.3828L120.885 115.475Z" fill="white" stroke="white" stroke-width="2"/>
</mask>
<g mask="url(#mask1_44_45423)">
<mask id="mask2_44_45423" style="mask-type:luminance" maskUnits="userSpaceOnUse" x="-37" y="1" width="160" height="159">
<path d="M120.885 115.475L7.7925 158.158L-34.8819 45.0729L78.2024 2.3828L120.885 115.475Z" fill="white" stroke="white" stroke-width="2"/>
</mask>
<g mask="url(#mask2_44_45423)">
<mask id="mask3_44_45423" style="mask-type:luminance" maskUnits="userSpaceOnUse" x="-25" y="9" width="141" height="141">
<path d="M114.468 110.235L14.5326 147.955L-23.1789 48.0274L76.7482 10.3002L114.468 110.235Z" fill="white" stroke="white" stroke-width="2"/>
</mask>
<g mask="url(#mask3_44_45423)">
<mask id="mask4_44_45423" style="mask-type:luminance" maskUnits="userSpaceOnUse" x="-25" y="9" width="141" height="141">
<path d="M114.315 110.168L14.5921 147.81L-23.0415 48.0952L76.6809 10.4534L114.315 110.168Z" fill="white" stroke="white" stroke-width="2"/>
</mask>
<g mask="url(#mask4_44_45423)">
<path d="M-11.3993 78.9341L-23.0397 48.0997C31.9094 27.9478 93.1411 55.6005 114.31 110.17L83.4757 121.81C68.7178 84.2403 26.547 65.1883 -11.3993 78.9341Z" stroke="white" stroke-width="2"/>
</g>
</g>
</g>
</g>
</g>
</svg>
